/* XPM */
static char *ea57d0d860c540d9e99cf154d481570aOuvzc1bvbHQB4gkE[] = {
/* columns rows colors chars-per-pixel */
"32 32 59 1 ",
"  c None",
". c #190D06",
"X c #1A0E06",
"o c #1B0F06",
"O c #1C0F06",
"+ c #1C1006",
"@ c #1F1106",
"# c #211206",
"$ c #211306",
"% c #221306",
"& c #271607",
"* c #29180C",
"= c #2A190C",
"- c #2E1B0D",
"; c #2F1C0D",
": c #321F11",
"> c #331F11",
", c #352112",
"< c #362212",
"1 c #372312",
"2 c #372412",
"3 c #46341F",
"4 c #413123",
"5 c #473621",
"6 c #453423",
"7 c #463422",
"8 c #463622",
"9 c #403024",
"0 c #4B3D20",
"q c #4C3D20",
"w c #4C3E20",
"e c #4D3E20",
"r c #4D3F20",
"t c #493B2B",
"y c #493D2D",
"u c #4B3D30",
"i c #504832",
"p c #564C30",
"a c #564D30",
"s c #676251",
"d c #676253",
"f c #686453",
"g c #696453",
"h c #696652",
"j c #6B6B60",
"k c #6C6C63",
"l c #6D6E66",
"z c #81857D",
"x c #84867C",
"c c #84877E",
"v c #858781",
"b c #858881",
"n c #858884",
"m c #868986",
"M c #8D8F91",
"N c #8E9091",
"B c #979890",
"V c #A9AAA4",
"C c #ABABA4",
/* pixels */
"ivvbbbbbbbbbbbB  lnvmmmxnnmmmmmC",
"<wwwwwwwrrrrrrpu%wwweeeieerrrreh",
"<wwwwweerrrr3ray%5wweeeeerrreeeh",
"<wwwwwwwrr3rrrai%5eweeeeerrrieeh",
"1wwwwwwwr0r0rrat%8wweeeeeeer3rrh",
"1wwwwwww0r0rr3at%8wweeeeeeeerrrh",
"1qwwwwwwr0r0rrpt%80weeeeeeeerrrh",
"<qwwwwww0r0rrrpi%80weeeeeeeeerrs",
"<qqwwwwwwwwwrrat%3i30000ee0wwwwg",
"%<1>--<-<--<>;2=+;;:,>>>>>>>>>>6",
" ..OOOOOoOOO+.+++X.ooooo@OOOooo ",
"izzzzzM4@jzzxzzxxzzvzzM9#jxxzzvC",
"<wwwwwpu@6rr3rrr3rrrwwpt%8wwwwwg",
"<wwwwwpu%6rrrrrrrrrrwwpt%8wwwwwg",
"<wwwwwpuO73rrrr3rrrr0wpt%8wwwwwg",
">wwwwwpu%6i3rrrrrr3r00pt%8wwwwwg",
"<wwwwwpu@8wwwwwwrrr0rrat+3rr3rrh",
"<wwww0pu%8wwwwwwrr0rrrat@0rrrr3h",
"<0wwwwpu@8wwww00r0r0rrat%83rrrrh",
"<qwwwwpu@3wwww000r0rr3at%8i33rrh",
"*>>>>><*O-;>>>>:;>,,;,2&o=>,2;>3",
" o.oooo.oooo.o.oX+++o.++oooo+++ ",
"izzzzzzzzzzxzzM9+kzzzzzxzzccczbV",
"<q00wwwwwwwwwwpt+5rr00i3wwwww00h",
"<qqqqqqqwwwwwwpt+0r33rrrwwwwwwwg",
"<q0qqqqqwwwwwwpt$3rrrrrrwwwwww0g",
">qqq00qqqqqwwwpt+0rrrrrrwwwwwwwg",
"<qqq000000qqqqpt@3rrrrrrwwwwwq0d",
"<0qq00000000wwpt%30wrrr3rr3rwwwg",
">0qq00000q00wwpt@8wwrrrrrrrrww0d",
",wwqww00wqw0qqpt%5wq3rrrr3rri3qd",
"&-1->-<->>>>>-2  ->->>>>>2>;;>-6"
};
