/* XPM */
static char *_91d699f923d4ab7a7cc7d892f5c6730p6XoRKK8yUvnUf8z[] = {
/* columns rows colors chars-per-pixel */
"32 32 89 1 ",
"  c #191B17",
". c #1C1F1A",
"X c #1D221B",
"o c #21241E",
"O c #242622",
"+ c #262A22",
"@ c #2A2C25",
"# c #2D2E29",
"$ c #312F2C",
"% c #2C3126",
"& c #2F3229",
"* c #32342C",
"= c #35392D",
"- c #383D2F",
"; c #363531",
": c #383632",
"> c #373A31",
", c #3B3C33",
"< c #3E3B38",
"1 c #403F37",
"2 c #403E39",
"3 c #3D4134",
"4 c #404336",
"5 c #434937",
"6 c #44443A",
"7 c #49463E",
"8 c #464A3A",
"9 c #494C3D",
"0 c #4B513E",
"q c #464641",
"w c #4B4741",
"e c #4D4C41",
"r c #4E4D41",
"t c #4E4C43",
"y c #4E4D43",
"u c #4F4E44",
"i c #504E44",
"p c #514E45",
"a c #524E46",
"s c #544F48",
"d c #4D5040",
"f c #4D5340",
"g c #4F5042",
"h c #4F5242",
"j c #515343",
"k c #505442",
"l c #525543",
"z c #525144",
"x c #525146",
"c c #545246",
"v c #555347",
"b c #515544",
"n c #545445",
"m c #545644",
"M c #545745",
"N c #545546",
"B c #545447",
"V c #565947",
"C c #575947",
"Z c #555348",
"A c #56514A",
"S c #575649",
"D c #57554A",
"F c #58544A",
"G c #59564B",
"H c #59594B",
"J c #5A594B",
"K c #5A5A4A",
"L c #5B5B4B",
"P c #5B5C4B",
"I c #5C594C",
"U c #5D5A4D",
"Y c #5C594E",
"T c #5D5C4D",
"R c #5D5D4E",
"E c #5E5950",
"W c #5E5B50",
"Q c #5E5A51",
"! c #605E4F",
"~ c #625B52",
"^ c #615C53",
"/ c #655E55",
"( c #5F604E",
") c #60604F",
"_ c #626152",
"` c #646252",
"' c #6A6359",
"] c #6F665C",
"[ c #736B60",
/* pixels */
"&O3599r:=!Y,7n5XO*33=en,se:&8983",
"4O@*>+O@iR1,!j3@9*o%66A#;<61RINg",
"<O2wwg8%66@0j9*:0803nb*2<$$$pF/^",
"o;Y~SL0O:o$NN8o-0kN39F*jIrN:#;=#",
".:NiNL&3o,@48=*g0NC49j=R_byq#A<O",
"6*9mj=65@n:*9,,kmCj=6r>LRSc5#^]G",
"I-4N*-9&%0%,hb*:3%@,5;@0Cc4;<S[/",
"I-@#o@@-%8o*093c-#5Nn03+==,Fre_~",
"m*o699#,,@&3,*hN&+00b80%33JF96RC",
"3#4Ype*wwq*55,CkX33hg50%%jJPr=g8",
"-*1sJ<<wqr=-,3h,o3bC(05&&gR`8oo&",
"99*nR#6GLL3SJ,,&+0bk03+*%5GJ*3+8",
"0m=3,*2,,,6ELwq&&%%-:+0r9:$:&*X,",
"8j5%%jn66,AE_r*b008&*rLb9w<<7j+X",
"@-&OkjL9;p66G<<Sffh%9SGeGe;qsb@X",
"55=,CLN*cGEG;<2hfbg+4AY~p$;2YL=@",
"99,3h_e5NIYA*G:kf33hw>Ae;#JW`cw@",
"*,#@6w@*0L9*%G,#==EShc**w,E_ExgX",
"0L;c6*e3-9*N96<63*EeJA,<*:)SS_>*",
"c_96*@yy*O*G7,q6E3<BEqJS*@6hE4@7",
"J/<2ce@3O,*r&rW,3,@Ja<_Eh;8cGJ,<",
":2w'EJ3;CLS=+:b-f6#y*5CQc9cLJj4+",
"@9JWSG,6`~Gp&O-,3>>3@<he,333:rN#",
";*59e,+gE/sec#9jh35y>6>8^97c6749",
"N9;+$;64~~A~AO6F9*,F695)Jrgbq#3A",
"997*p6,#:2q2#:;*A`k,*@50WWLC&,,e",
"64$@pFA:w/w#2F2:YIRk=%55LK(3:N&;",
"p;62111,2FppwY:,j!I85o330C9+:,*=",
"+*j+:Y!n*pAp<F*38=e8*o%=3=%%CWK:",
"@4,#pnnp;A:2$,,*,I_b5&=%%88%gPkj",
"O*+89996;<An<pY,SRRb9@=48=5%3h8A",
" @,-44nA@pAF=,6O399p4#4-R0*Xo@*#"
};
