/* XPM */
static char *a894e48db940474cf819291b3e95fa61LCvCB7FuD8cK3oh3[] = {
/* columns rows colors chars-per-pixel */
"32 32 61 1 ",
"  c None",
". c #0B1315",
"X c #0C1314",
"o c #0C1416",
"O c #0C1517",
"+ c #0D1517",
"@ c #0C1617",
"# c #0E1717",
"$ c #0F1817",
"% c #0E1917",
"& c #0F1918",
"* c #111C1A",
"= c #0F1E22",
"- c #0F1F22",
"; c #122125",
": c #132225",
"> c #14252A",
", c #15252A",
"< c #15272D",
"1 c #16272D",
"2 c #17292D",
"3 c #18282D",
"4 c #25373F",
"5 c #183443",
"6 c #1B3442",
"7 c #233842",
"8 c #253841",
"9 c #243941",
"0 c #263941",
"q c #2E3F41",
"w c #253D4C",
"e c #303F41",
"r c #2F4041",
"t c #25404F",
"y c #304041",
"u c #314041",
"i c #314141",
"p c #264051",
"a c #304954",
"s c #3E4D54",
"d c #414F54",
"f c #5C6175",
"g c #5C6177",
"h c #5E6477",
"j c #606477",
"k c #606577",
"l c #646B87",
"z c #666D8B",
"x c #696E8E",
"c c #8A8BA7",
"v c #8E8CA7",
"b c #8E8EA8",
"n c #8F8DAB",
"m c #8F8FAB",
"M c #8F8FAD",
"N c #9090B0",
"B c #9797BA",
"V c #9899BA",
"C c #9FA1B8",
"Z c #AAB6C7",
"A c #ABB7C7",
/* pixels */
"annnmmmmnmmmmmC  xMnNNNNNNNNNNNA",
"1rruuuuuuuuuuusp&ruruuuiiiiiiiih",
"1rrrrruuuuuuuudp%9uuuuuuiiiiiiik",
"1rrrrrrrruuuuudp%9uuuuuuiiiiiuuk",
"2rrrrrrrrrrruudt%9uuuuuuuuuuiiik",
"1rrrrrrrrrrrrrdt%9uuuuuuuuuuuuuk",
"1qrrrrrrrrrrrrdt%8uuuuuuuuuuuuuk",
"1errrrrrrrrrrrdt$8rruuuuuuuuuuuk",
"1qeerrrrrrrrrrdt%4ryrrrquuruuuuh",
"*111::1:1::<,,2-O;,>>>>>,,>>>>>8",
" X.oOOOOOOOO.oOOOOOOO.OOOOOOooO ",
"acccccB6olccvcccvccnccV6%xcmvcnA",
"1errrrsp%8rrrrrrrrrrrrsw%9rrurrk",
"1errrrspo8rrrrrrrrrrrrdw%8rrurrk",
"1eurrrsp&8urrrrrrrrrrrsw%8rrrrrh",
"1qurrrsp&8rrrrrrrrrrrrsw%8rrrrrh",
"1rrrrrsp%9rrrrrurrrrrrsw%8rrrrrh",
"1rrrrrsp%9rrrrrurrrrrrsw%9rrrrrh",
"1qrrrrsp%8rrrriurrrrrrsw%8rrrrrh",
"1errrrsp%4rrrri4rrrrrrsw%8rrrquh",
"-,,,,,3-o::,,>>>,,,,,,3-O;,,,,,9",
" oXXooooooooX.OOOOooooooOOOOooo ",
"acccccccccvvccB5%zcbcbcbcvvvncMZ",
"1eeeruruuuuurrsto4urrrrryrrrreeh",
"1eeeeeeerururrswo9rrrrrrrrrrrrrh",
"1eqeeeeeuuurursw&9rrrrrrrrrrrr4h",
"1eeeqqeeeequrusw%8urrrrrrrrruuik",
"1qeeqqqqqqeeeesw%4rurrrrrrrrreeh",
"1qqqqqqqqqqqeesw*4eeuururrrurrrh",
"1qqeqqqqqeqqeuswo8eequuruururrqh",
"1qqeeeqqeeereedw$8eeeeeereeuqqef",
"*:1:1:1:,,,,,:3  :,:,,,,,,,,,>:7"
};
