/* XPM */
static char *_093d978dce146b0e2e682c0e99d1b085Rs4DExAS8ubv3mO[] = {
/* columns rows colors chars-per-pixel */
"32 32 94 2 ",
"   c None",
".  c #18150E",
"X  c #18150F",
"o  c #19160F",
"O  c #1A1710",
"+  c #1B1710",
"@  c #1B1811",
"#  c #1E1A13",
"$  c #1E1B13",
"%  c #1F1B13",
"&  c #1F1B14",
"*  c #1F1C14",
"=  c #201C14",
"-  c #252017",
";  c #252117",
":  c #242018",
">  c #25211B",
",  c #25221B",
"<  c #26221C",
"1  c #29241B",
"2  c #29241C",
"3  c #2A241C",
"4  c #2A251C",
"5  c #2C271E",
"6  c #2D271E",
"7  c #2E2920",
"8  c #2F2920",
"9  c #2F2A20",
"0  c #312B22",
"q  c #312C23",
"w  c #322C23",
"e  c #37342F",
"r  c #3F382D",
"t  c #3F382E",
"y  c #3F392E",
"u  c #393531",
"i  c #3E3830",
"p  c #3E3831",
"a  c #3F3931",
"s  c #40392E",
"d  c #463F34",
"f  c #473F34",
"g  c #423E39",
"h  c #433E39",
"j  c #433E3A",
"k  c #433F3A",
"l  c #474034",
"z  c #474035",
"x  c #484035",
"c  c #484135",
"v  c #44403B",
"b  c #44403C",
"n  c #45403C",
"m  c #45413C",
"M  c #4D4944",
"N  c #4F4944",
"B  c #4E4945",
"V  c #534C43",
"C  c #534C44",
"Z  c #534D44",
"A  c #544D44",
"S  c #69615C",
"D  c #69615D",
"F  c #6A625E",
"G  c #6A625F",
"H  c #6A635F",
"J  c #6B635F",
"K  c #6B6360",
"L  c #6B6460",
"P  c #6D6869",
"I  c #6E696A",
"U  c #6F6A6B",
"Y  c #726E6F",
"T  c #817D82",
"R  c #827D82",
"E  c #827E82",
"W  c #827E83",
"Q  c #837E83",
"!  c #827E84",
"~  c #837E84",
"^  c #837F84",
"/  c #847F85",
"(  c #848085",
")  c #848086",
"_  c #858086",
"`  c #858186",
"'  c #858187",
"]  c #868187",
"[  c #8B868B",
"{  c #8C878C",
"}  c #938E93",
"|  c #A29EA2",
" . c #A39EA2",
".. c #A39FA2",
/* pixels */
"M / / ( ( ( ( ( ( ( ( ( ( ( }     U ) ( ' ' ' ' ' ' ' ' ' ' ' ..",
"9 z z x x x x x x x x x x x C n = d x z c c c c c c c c c c c J ",
"9 z z z z z x x x x x x x x A n * y x x x x x x c c c c c c c J ",
"9 z z z z z z z z x x x x x A n * y x x x x x x c c c c c c c J ",
"9 z z z z z z z z z z z x x A v * y x x x x x x x x x c c c c J ",
"9 z z z z z z z z z z z z z A v & y x x x x x x x x x x x x c L ",
"9 f z z z z z z z z z z z z A v & y x x x x x x x x x x x x x J ",
"9 f z z z z z z z z z z z z A v & y z z x x x x x x x x x x x J ",
"9 f f x z z z z z z z z z z A v * y z x z z z z x x l l x x x J ",
"= 9 7 7 4 4 7 4 7 4 4 7 6 6 q , @ 4 5 5 5 5 5 5 5 5 5 5 5 5 5 i ",
"  . X O O O O O O O O O o o o o o o o o o o o o O O o o o o O   ",
"M T T T T T [ u # P T T Q T T T ^ T T ( T T { e * U T ( Q T / ..",
"9 f z z z z C n # t z z z z z z z z z z z z C j * y z z x z z J ",
"9 f z z z z C n # t z z z z z z z z z z z z A j & y z z x z z J ",
"9 f x z z z C n # t f z z z z z z z z z z z C j & y z z z z z H ",
"7 f z z z z C n = t z z z z z z z z z z z z C j & y z z z z z H ",
"9 z z z z z C n # y z z z z z z z z z z z z C j # y z z z z z H ",
"9 z z z z z C n = y z z z z z z z z z z z z C j # y z z z z f H ",
"7 f z z z z C n # s z z z z z z z z z z z z V j = y z z z z z H ",
"9 f z z z z V n # r z z z z z x z z z z z z V j & y z z z f f H ",
", 6 6 6 6 6 0 > + 4 4 5 5 5 5 5 6 6 6 6 6 6 0 , O 2 6 6 6 6 6 i ",
"  o . . o o o . o o o o . . o o o o o o o o o o O o o o o o O   ",
"M T T T T T T T T T Q Q T T [ e # I T ^ T ^ T ^ T ^ ^ ^ ^ T / | ",
"9 f f f l l l l x l l l z z V v # y x z z z z z f f z z z f f H ",
"9 f f f f f f f l l l l z z V j # y z z z z z z z z z z z z z H ",
"9 f d f f f f f l l l l l l V j = y z z z z z z z z z z z z f D ",
"7 f f f d d f f f f f l l l V j # s l z z z z z z z z z z z f H ",
"7 f f f d d d d d d f f f f V j # r l l l z z z z z z z z f f D ",
"9 d d d d d d d d d d d f f V j = r f f l l l l l z z x z z z H ",
"7 d d f d d d d d f d d f f V j # s f f f l l l l l l l z z f D ",
"7 d f f f f d d f f f l f f A j # s f f f f f f l f x x z z f S ",
": 4 7 4 7 4 9 4 6 6 6 5 5 4 q     4 6 4 6 6 6 6 6 6 5 5 5 5 4 i "
};
