/* XPM */
static char *cd4073dd0e0d42389cf145a9f606fc97e7JFj1i4h6v9zkI8[] = {
/* columns rows colors chars-per-pixel */
"32 32 33 1 ",
"  c None",
". c gray12",
"X c #202020",
"o c gray13",
"O c #222222",
"+ c #232323",
"@ c gray14",
"# c #252525",
"$ c gray16",
"% c #2C2C2C",
"& c #2F2F2F",
"* c gray19",
"= c #313131",
"- c #323232",
"; c #373737",
": c gray23",
"> c #3C3C3C",
", c #505050",
"< c gray32",
"1 c #535353",
"2 c #585858",
"3 c gray35",
"4 c #5B5B5B",
"5 c #747474",
"6 c #767676",
"7 c #777777",
"8 c gray47",
"9 c #797979",
"0 c gray51",
"q c #848484",
"w c gray56",
"e c #A9A9A9",
"r c gray67",
/* pixels */
";7788888888888w  47888888888888r",
"#=============:=o=====;=;===;==2",
"#=============>&o$=============<",
"#=============>=o&========;=;==<",
"#=============>&o&=============<",
"#=============>=o$=============2",
"#=============>=.&=============<",
"#=============>=o$=============<",
"#=============>=.&=============<",
"o#o#oo###oo#o##o.#o###o##o#o###$",
" .oo.oo...oo..o.o...o.o.oo....o ",
";555550$.2577555775757q$o477777r",
"#=====:=o$======&=====:&o&=====<",
"#=====:&.&============:&.$=====<",
"#=====:=o&============:&.&=====<",
"#=====:&o$============:&o$=====<",
"#=====:&.&============:&o$=====<",
"#=====:=o$============:&.&=====<",
"#=====:=o$============:&o&=====<",
"#=====:=.&============:&o$=====<",
"oo###o#oooo#o###o#o####oooo#o#o&",
" o....o..ooo..o.ooo.o.o.ooo.ooo ",
";57555555577550$.47757577777757r",
"#==&==========:=o$&======&====&<",
"#=============:&o$=============<",
"#=============:&o&=============,",
"o====&========:&o&=============<",
"#===&=&=&=====:&o$=============,",
"#=&==&=&=&=&==:&o$=============<",
"o&==&=&===&===:&.&=============,",
"#======&======>&o&=============,",
"oo#o###o#o###o#  o#oo###o###o##$"
};
